<svg xmlns="http://www.w3.org/2000/svg" width="301" height="62" viewBox="0 0 301 62"><path d="M5.133 59.813c1.234 0 2.297-.132 3.187-.396.89-.264 1.623-.686 2.2-1.263.578-.577 1.003-1.323 1.276-2.237.273-.913.409-2.011.409-3.294 0-1.284-.136-2.383-.41-3.295-.272-.916-.697-1.66-1.274-2.239-.578-.576-1.311-.997-2.201-1.262-.89-.264-1.953-.398-3.187-.398H1.645v14.384h3.488zm.817-15.778c2.614.064 4.583.799 5.906 2.2 1.323 1.404 1.985 3.534 1.985 6.388s-.662 4.983-1.985 6.386c-1.323 1.404-3.292 2.136-5.906 2.2H.009V44.035h5.94zM16.702 61.21h1.515V48.8h-1.515v12.41zm0-14.745h1.515v-2.429h-1.515v2.43zm13.53 6.014a4.542 4.542 0 0 0-.781-1.407 3.868 3.868 0 0 0-1.226-.986c-.481-.25-1.027-.373-1.636-.373-.626 0-1.18.123-1.66.372a3.88 3.88 0 0 0-1.226.986 4.88 4.88 0 0 0-.806 1.42 6.918 6.918 0 0 0-.397 1.648h8.034a5.489 5.489 0 0 0-.301-1.66m-7.504 4.63a4.62 4.62 0 0 0 .733 1.576c.337.465.762.85 1.275 1.154.513.304 1.13.457 1.852.457 1.106 0 1.973-.288 2.598-.866.625-.577 1.058-1.348 1.298-2.309H32c-.321 1.412-.91 2.502-1.768 3.272-.857.77-2.072 1.153-3.644 1.153-.98 0-1.824-.172-2.538-.517a4.664 4.664 0 0 1-1.744-1.419 6.16 6.16 0 0 1-.998-2.093 9.525 9.525 0 0 1-.325-2.512c0-.819.109-1.62.325-2.405a6.445 6.445 0 0 1 .998-2.105 5.006 5.006 0 0 1 1.744-1.492c.714-.378 1.559-.566 2.538-.566.994 0 1.844.202 2.549.602a5.08 5.08 0 0 1 1.72 1.576 6.52 6.52 0 0 1 .95 2.236c.193.843.273 1.695.24 2.563H22.5c0 .545.076 1.11.229 1.696m21.37-8.311l-.432 2.26h.048a6.095 6.095 0 0 1 1.864-1.864 4.608 4.608 0 0 1 2.563-.757c.543 0 1.045.064 1.503.192.455.128.854.325 1.189.589.338.266.599.61.784 1.035.182.425.276.934.276 1.527 0 .337-.065.826-.193 1.468l-1.706 7.96h-1.516l1.73-8.01a5.82 5.82 0 0 0 .12-.611c.032-.217.05-.43.05-.64 0-.415-.073-.764-.217-1.045a1.934 1.934 0 0 0-.58-.685 2.388 2.388 0 0 0-.827-.385 3.92 3.92 0 0 0-.974-.12c-.547 0-1.075.12-1.59.36a4.907 4.907 0 0 0-1.417 1.023 6.387 6.387 0 0 0-1.131 1.612 8.377 8.377 0 0 0-.721 2.128L41.55 61.21h-1.491l2.646-12.411H44.1zm19.832 4.846a7.96 7.96 0 0 0 .013-.469c0-1.058-.3-1.9-.903-2.525-.6-.626-1.43-.939-2.49-.939-.625 0-1.198.124-1.719.373a5.038 5.038 0 0 0-1.395.986 5.62 5.62 0 0 0-1.023 1.407 6.853 6.853 0 0 0-.6 1.661h8.105c0-.177.005-.341.012-.494m-8.382 2.731c0 .561.072 1.082.216 1.563.144.481.364.894.662 1.239.297.344.673.617 1.131.817.456.201.99.302 1.6.302 1.01 0 1.866-.285 2.572-.855.706-.569 1.202-1.31 1.492-2.224h1.515c-.417 1.411-1.09 2.485-2.02 3.222-.93.738-2.14 1.107-3.632 1.107-1.652 0-2.907-.465-3.765-1.396-.859-.928-1.287-2.212-1.287-3.848 0-.993.148-1.96.444-2.898a7.931 7.931 0 0 1 1.311-2.513 6.71 6.71 0 0 1 2.118-1.781c.834-.449 1.78-.674 2.84-.674.752 0 1.417.117 1.995.349a4.213 4.213 0 0 1 1.48.987c.41.425.717.934.926 1.527.208.594.312 1.251.312 1.973a22 22 0 0 1-.025 1.058c-.016.353-.046.714-.095 1.082h-9.718a5.894 5.894 0 0 0-.072.963m19.387 4.834l.433-2.261h-.049a5.942 5.942 0 0 1-1.863 1.853 4.658 4.658 0 0 1-2.561.745c-.546 0-1.046-.06-1.504-.181a3.22 3.22 0 0 1-1.19-.576 2.613 2.613 0 0 1-.782-1.034c-.186-.426-.276-.935-.276-1.528 0-.337.063-.826.191-1.467l1.709-7.962h1.514l-1.73 8.009a5.612 5.612 0 0 0-.17 1.251c0 .402.073.746.216 1.035a1.9 1.9 0 0 0 .579.697c.24.177.516.305.83.385.313.081.636.121.972.121.563 0 1.097-.121 1.6-.361a4.787 4.787 0 0 0 1.395-1.023c.424-.44.797-.978 1.12-1.611.32-.634.569-1.343.745-2.129l1.372-6.374H79L76.33 61.21h-1.395zm15.359-7.565a7.96 7.96 0 0 0 .013-.469c0-1.058-.301-1.9-.903-2.525-.6-.626-1.431-.939-2.49-.939-.625 0-1.198.124-1.72.373a5.023 5.023 0 0 0-1.394.986 5.62 5.62 0 0 0-1.023 1.407 6.898 6.898 0 0 0-.601 1.661h8.106c0-.177.004-.341.012-.494m-8.382 2.731c0 .561.072 1.082.216 1.563.144.481.364.894.662 1.239a3.1 3.1 0 0 0 1.13.817c.457.201.99.302 1.599.302 1.01 0 1.868-.285 2.574-.855.706-.569 1.202-1.31 1.492-2.224H91.1c-.417 1.411-1.091 2.485-2.021 3.222-.931.738-2.14 1.107-3.632 1.107-1.651 0-2.906-.465-3.764-1.396-.86-.928-1.287-2.212-1.287-3.848 0-.993.148-1.96.444-2.898a7.911 7.911 0 0 1 1.31-2.513 6.71 6.71 0 0 1 2.119-1.781c.834-.449 1.78-.674 2.838-.674.754 0 1.419.117 1.996.349.579.233 1.07.562 1.48.987.409.425.718.934.927 1.527.208.594.312 1.251.312 1.973a22 22 0 0 1-.025 1.058c-.016.353-.047.714-.096 1.082h-9.717a5.894 5.894 0 0 0-.072.963m21.19 1.395a3.636 3.636 0 0 0 1.19 1.418c.506.353 1.103.605 1.792.758.692.154 1.428.229 2.214.229.45 0 .938-.063 1.467-.192a5.101 5.101 0 0 0 1.48-.613 3.783 3.783 0 0 0 1.142-1.082c.304-.442.457-.975.457-1.6 0-.482-.108-.899-.325-1.252a2.982 2.982 0 0 0-.843-.89 5.001 5.001 0 0 0-1.14-.59 11.387 11.387 0 0 0-1.227-.372l-3.826-.938c-.495-.127-.983-.29-1.454-.48a4.154 4.154 0 0 1-1.24-.77 3.637 3.637 0 0 1-.853-1.18c-.218-.465-.325-1.034-.325-1.708 0-.416.08-.905.24-1.467.161-.561.46-1.09.902-1.586.441-.498 1.047-.919 1.817-1.264.769-.345 1.757-.518 2.959-.518.849 0 1.66.113 2.428.337.77.226 1.445.563 2.022 1.01a5.04 5.04 0 0 1 1.382 1.672c.345.666.517 1.44.517 2.322h-1.636c-.032-.658-.178-1.23-.444-1.72a3.836 3.836 0 0 0-1.035-1.226 4.521 4.521 0 0 0-1.468-.746 5.92 5.92 0 0 0-1.743-.253 7.26 7.26 0 0 0-1.623.18 4.067 4.067 0 0 0-1.37.578 2.96 2.96 0 0 0-.95 1.047c-.242.432-.361.97-.361 1.61 0 .401.067.75.204 1.047.135.297.323.55.564.758.24.209.517.377.83.505.313.129.647.233.999.313l4.185 1.034c.61.16 1.181.358 1.72.589a5.7 5.7 0 0 1 1.418.867c.41.344.73.765.963 1.262.233.497.349 1.099.349 1.804 0 .193-.021.45-.06.77-.04.32-.137.661-.289 1.023-.151.36-.37.724-.65 1.093-.28.37-.665.702-1.153.998-.491.297-1.095.538-1.816.723-.724.184-1.59.275-2.599.275-1.01 0-1.948-.116-2.814-.348-.865-.233-1.603-.589-2.213-1.07a4.697 4.697 0 0 1-1.406-1.852c-.33-.753-.47-1.66-.421-2.718h1.635c-.016.881.12 1.62.408 2.212m22.793-5.291a4.522 4.522 0 0 0-.782-1.407 3.88 3.88 0 0 0-1.227-.986c-.481-.25-1.025-.373-1.636-.373-.626 0-1.178.123-1.66.372-.481.25-.89.577-1.226.986a4.855 4.855 0 0 0-.805 1.42 6.969 6.969 0 0 0-.398 1.648h8.034a5.551 5.551 0 0 0-.3-1.66m-7.505 4.63a4.64 4.64 0 0 0 .733 1.576c.337.465.76.85 1.276 1.154.511.304 1.13.457 1.851.457 1.106 0 1.972-.288 2.597-.866.627-.577 1.06-1.348 1.3-2.309h1.516c-.323 1.412-.912 2.502-1.769 3.272-.858.77-2.072 1.153-3.644 1.153-.979 0-1.825-.172-2.538-.517a4.672 4.672 0 0 1-1.744-1.419 6.198 6.198 0 0 1-.998-2.093 9.525 9.525 0 0 1-.325-2.512c0-.819.108-1.62.325-2.405a6.486 6.486 0 0 1 .998-2.105 5.015 5.015 0 0 1 1.744-1.492c.714-.378 1.56-.566 2.538-.566.995 0 1.843.202 2.55.602a5.093 5.093 0 0 1 1.72 1.576c.44.649.757 1.395.95 2.236.192.843.272 1.695.24 2.563h-9.55c0 .545.078 1.11.23 1.696m13.24-8.311v2.91h.05c.384-1.011.98-1.788 1.792-2.333.809-.545 1.775-.794 2.898-.746v1.516c-.69-.033-1.315.06-1.876.277a4.19 4.19 0 0 0-1.455.925c-.41.4-.726.878-.95 1.43a4.778 4.778 0 0 0-.338 1.818v6.614h-1.515V48.798h1.395zm6.953-.001l3.896 10.896h.049l3.848-10.896h1.563l-4.641 12.411h-1.612l-4.787-12.411zm11.353 12.412h1.517V48.797h-1.517V61.21zm0-14.746h1.517v-2.429h-1.517v2.43zm12.507 4.04c-.56-.528-1.346-.792-2.356-.792-.722 0-1.355.152-1.9.456a4.181 4.181 0 0 0-1.359 1.203 5.426 5.426 0 0 0-.818 1.696 6.878 6.878 0 0 0 0 3.874c.184.632.456 1.198.818 1.695.36.497.813.898 1.358 1.202.546.305 1.18.458 1.901.458.464 0 .906-.09 1.323-.266a3.556 3.556 0 0 0 1.107-.733 4.08 4.08 0 0 0 1.177-2.538h1.517c-.21 1.509-.762 2.683-1.66 3.524-.899.842-2.053 1.263-3.464 1.263-.947 0-1.784-.172-2.513-.518a5.295 5.295 0 0 1-1.842-1.407 6.16 6.16 0 0 1-1.13-2.08 8.181 8.181 0 0 1-.385-2.537c0-.898.128-1.745.385-2.538a6.174 6.174 0 0 1 1.13-2.081 5.475 5.475 0 0 1 1.842-1.42c.73-.352 1.566-.528 2.513-.528 1.331 0 2.457.353 3.38 1.058.921.706 1.471 1.772 1.647 3.199H163.6c-.209-.93-.594-1.66-1.156-2.19m13.99 1.974a4.544 4.544 0 0 0-.783-1.407 3.868 3.868 0 0 0-1.226-.986c-.481-.25-1.026-.373-1.636-.373-.625 0-1.178.123-1.66.372a3.894 3.894 0 0 0-1.227.986 4.9 4.9 0 0 0-.805 1.42 6.918 6.918 0 0 0-.397 1.648h8.035a5.551 5.551 0 0 0-.301-1.66m-7.506 4.63c.153.587.397 1.11.735 1.576.335.465.76.85 1.274 1.154.513.304 1.13.457 1.852.457 1.106 0 1.972-.288 2.598-.866.625-.577 1.059-1.348 1.299-2.309h1.516c-.323 1.412-.911 2.502-1.768 3.272-.86.77-2.073 1.153-3.645 1.153-.98 0-1.824-.172-2.538-.517a4.672 4.672 0 0 1-1.744-1.419 6.179 6.179 0 0 1-.998-2.093 9.525 9.525 0 0 1-.325-2.512c0-.819.109-1.62.325-2.405a6.465 6.465 0 0 1 .998-2.105 5.015 5.015 0 0 1 1.744-1.492c.714-.378 1.559-.566 2.538-.566.995 0 1.843.202 2.549.602.706.402 1.28.926 1.72 1.576a6.52 6.52 0 0 1 .95 2.236c.194.843.273 1.695.24 2.563H168.7c0 .545.076 1.11.228 1.696m11.845-1.817h6.014v-1.395h-6.014zm14.793 4.521c1.235 0 2.298-.132 3.188-.396.891-.264 1.624-.686 2.201-1.263.578-.577 1.002-1.323 1.275-2.237.272-.913.408-2.011.408-3.294 0-1.284-.136-2.383-.408-3.295-.273-.916-.697-1.66-1.275-2.239-.577-.576-1.31-.997-2.2-1.262-.89-.264-1.954-.398-3.189-.398h-3.486v14.384h3.486zm.818-15.778c2.615.064 4.583.799 5.907 2.2 1.322 1.404 1.983 3.534 1.983 6.388s-.66 4.983-1.983 6.386c-1.324 1.404-3.292 2.136-5.907 2.2h-5.94V44.035h5.94zm10.752 17.174h1.517V48.8h-1.517v12.41zm0-14.745h1.517v-2.429h-1.517v2.43zm6.303 2.334v2.093h.072c.4-.77.925-1.372 1.576-1.805.65-.433 1.478-.65 2.489-.65.817 0 1.56.202 2.226.602.665.402 1.11 1.01 1.334 1.828.368-.818.915-1.426 1.636-1.828a4.695 4.695 0 0 1 2.31-.601c2.742 0 4.113 1.452 4.113 4.353v8.419h-1.516v-8.346c0-1.026-.218-1.808-.65-2.345-.434-.537-1.195-.806-2.285-.806-.657 0-1.202.124-1.635.373a2.872 2.872 0 0 0-1.035.998 4.193 4.193 0 0 0-.54 1.43 8.544 8.544 0 0 0-.157 1.673v7.023h-1.516v-8.42c0-.415-.043-.812-.131-1.19a2.739 2.739 0 0 0-.434-.985 2.062 2.062 0 0 0-.805-.662c-.337-.16-.747-.24-1.229-.24-.64 0-1.197.116-1.67.348a3.087 3.087 0 0 0-1.156.963 4.222 4.222 0 0 0-.66 1.443 7.102 7.102 0 0 0-.218 1.816v6.927h-1.514V48.798h1.394zm27.748 3.68a4.544 4.544 0 0 0-.784-1.407 3.868 3.868 0 0 0-1.225-.986c-.482-.25-1.026-.373-1.636-.373-.625 0-1.179.123-1.66.372a3.894 3.894 0 0 0-1.227.986 4.9 4.9 0 0 0-.805 1.42 6.918 6.918 0 0 0-.398 1.648h8.036a5.551 5.551 0 0 0-.302-1.66m-7.506 4.63a4.63 4.63 0 0 0 .736 1.576c.334.465.76.85 1.274 1.154.512.304 1.13.457 1.852.457 1.106 0 1.971-.288 2.597-.866.625-.577 1.06-1.348 1.3-2.309h1.516c-.323 1.412-.912 2.502-1.769 3.272-.859.77-2.073 1.153-3.644 1.153-.978 0-1.825-.172-2.538-.517a4.672 4.672 0 0 1-1.744-1.419 6.179 6.179 0 0 1-.998-2.093 9.525 9.525 0 0 1-.326-2.512c0-.819.11-1.62.326-2.405a6.465 6.465 0 0 1 .998-2.105 5.015 5.015 0 0 1 1.744-1.492c.714-.378 1.56-.566 2.538-.566.994 0 1.843.202 2.548.602.707.402 1.28.926 1.721 1.576.44.649.758 1.395.95 2.236.194.843.273 1.695.24 2.563h-9.549c0 .545.077 1.11.228 1.696m13.34-8.311v2.14h.047c.288-.753.802-1.358 1.54-1.816a4.521 4.521 0 0 1 2.43-.685c.865 0 1.59.112 2.175.337.586.224 1.056.54 1.409.949.351.409.6.91.744 1.504a8.48 8.48 0 0 1 .218 1.996v7.986h-1.517v-7.744c0-.53-.047-1.023-.143-1.48a3.095 3.095 0 0 0-.506-1.191 2.451 2.451 0 0 0-.975-.794c-.407-.192-.917-.288-1.526-.288-.61 0-1.151.107-1.624.324a3.533 3.533 0 0 0-1.203.89 4.086 4.086 0 0 0-.768 1.348 5.436 5.436 0 0 0-.302 1.695v7.24h-1.516V48.798h1.517zm19.048 2.417a2.45 2.45 0 0 0-.709-.854 2.965 2.965 0 0 0-1.023-.493 4.68 4.68 0 0 0-1.226-.156c-.338 0-.679.036-1.022.107a3.174 3.174 0 0 0-.952.362 2.07 2.07 0 0 0-.697.66c-.176.274-.264.61-.264 1.01 0 .338.083.623.252.856.17.232.38.428.638.589.257.16.537.293.842.397.305.104.585.189.842.252l2.02.458c.433.063.862.179 1.287.348.425.168.802.389 1.131.66.328.275.598.61.806 1.012.208.4.312.874.312 1.419 0 .674-.152 1.247-.456 1.72a3.718 3.718 0 0 1-1.168 1.154 4.918 4.918 0 0 1-1.599.638 8.31 8.31 0 0 1-1.756.192c-1.46 0-2.642-.345-3.547-1.034-.907-.69-1.425-1.796-1.552-3.32h1.515c.064 1.027.437 1.8 1.12 2.322.68.52 1.525.782 2.535.782.37 0 .751-.04 1.145-.121.391-.08.756-.216 1.093-.408a2.62 2.62 0 0 0 .83-.735c.216-.296.326-.661.326-1.093 0-.37-.077-.678-.23-.927a1.975 1.975 0 0 0-.613-.625 3.883 3.883 0 0 0-.878-.421 11.174 11.174 0 0 0-.999-.29l-1.948-.432a10.873 10.873 0 0 1-1.37-.445 4.361 4.361 0 0 1-1.095-.626 2.604 2.604 0 0 1-.734-.914c-.176-.36-.264-.806-.264-1.334 0-.626.14-1.163.421-1.612.281-.45.644-.81 1.094-1.082.45-.273.95-.474 1.503-.602a7.3 7.3 0 0 1 1.648-.192c.625 0 1.207.08 1.744.24a4.03 4.03 0 0 1 1.42.746c.407.336.733.754.973 1.25.241.498.377 1.083.41 1.757h-1.516c-.016-.465-.113-.87-.289-1.215m4.93 9.994h1.517V48.8h-1.517v12.41zm0-14.745h1.517v-2.429h-1.517v2.43zm8.251 3.704a4.188 4.188 0 0 0-1.357 1.203 5.428 5.428 0 0 0-.819 1.696 6.913 6.913 0 0 0 0 3.873c.184.633.457 1.199.819 1.696a4.15 4.15 0 0 0 1.357 1.202c.547.305 1.18.458 1.901.458.721 0 1.356-.153 1.901-.458a4.178 4.178 0 0 0 1.359-1.202 5.47 5.47 0 0 0 .818-1.696 6.942 6.942 0 0 0 0-3.873 5.47 5.47 0 0 0-.818-1.696 4.215 4.215 0 0 0-1.359-1.203c-.545-.304-1.18-.457-1.901-.457-.721 0-1.354.153-1.901.457m4.415-1.202c.73.353 1.344.826 1.84 1.419a6.147 6.147 0 0 1 1.13 2.081c.258.793.385 1.64.385 2.538 0 .898-.127 1.744-.385 2.537a6.142 6.142 0 0 1-1.13 2.08 5.288 5.288 0 0 1-1.84 1.407c-.729.346-1.568.518-2.514.518-.946 0-1.783-.172-2.512-.518a5.295 5.295 0 0 1-1.842-1.407 6.16 6.16 0 0 1-1.13-2.08 8.181 8.181 0 0 1-.385-2.537c0-.898.128-1.745.385-2.538a6.164 6.164 0 0 1 1.13-2.081 5.475 5.475 0 0 1 1.842-1.419c.729-.353 1.566-.529 2.512-.529s1.785.176 2.514.529m7.589-.168v2.14h.049c.287-.753.802-1.358 1.538-1.816a4.524 4.524 0 0 1 2.43-.685c.866 0 1.59.112 2.177.337.584.224 1.054.54 1.407.949.352.409.6.91.746 1.504.143.594.216 1.259.216 1.996v7.986H298.3v-7.744c0-.53-.047-1.023-.144-1.48a3.109 3.109 0 0 0-.505-1.191 2.465 2.465 0 0 0-.974-.794c-.408-.192-.918-.288-1.528-.288s-1.151.107-1.624.324a3.542 3.542 0 0 0-1.202.89 4.086 4.086 0 0 0-.77 1.348 5.494 5.494 0 0 0-.3 1.695v7.24h-1.515V48.798h1.515zM11 22.014c.822.024 1.966.043 2.76.043 4.932 0 6.1 1.377 6.1 1.377s4.008 4.475 5.925 6.334C27.702 31.628 27.702 34 27.702 34h12.55s-7.67-10.222-9.238-12.287c-1.569-2.066 0-3.615 0-3.615l7.32-8.48H40v17.153C40 30.641 43.408 34 48.203 34h19.504c4.88 0 7.991-3.352 7.991-7.214V5H64v16.894c0 2.116-1.29 3.83-3.407 3.83H55.37c-2.116 0-3.369-1.714-3.369-3.83V5H29.586s-4.149 4.216-7.287 6.81c-3.137 2.592-7.75 2.641-7.75 2.641H11V5H0v29h11V22.014zM0 2.007h300V0H0zm0 37h300V37H0zM87.07 5.729c-2.165-1.625-5.267-1.226-6.929.89a4.748 4.748 0 0 0-.902 1.966c-.016.071-.022.144-.035.215-.035.221-.064.44-.068.662-.002.053-.136.103-.136.156V34h10V19.392l17.583 13.429c2.156 1.636 5.26 1.253 6.932-.855.478-.603.768-1.28.916-1.98.017-.072.025-.146.037-.22a4.65 4.65 0 0 0 .068-.653c.002-.056.464-.11.464-.168V5h-10.11v14.172L87.07 5.728zM290 5v14.443L274.137 5.998c-2.165-1.624-5.268-1.225-6.93.892a4.73 4.73 0 0 0-.901 1.966c-.016.07-.022.143-.035.215-.036.22-.064.44-.07.661-.001.054-.201.103-.201.157v24.159h10V19.662l16.038 13.43c3.37 2.075 5.26 1.252 6.934-.857.477-.6.768-1.28.915-1.979.017-.072.024-.147.038-.22.035-.218.062-.435.067-.653 0-.057.017-.11.017-.167V5H290zm-145.474 6.051c.076-.119.136-.244.199-.368.053-.104.106-.206.149-.315.053-.132.089-.268.126-.404.03-.111.064-.22.084-.334.027-.147.036-.294.045-.443.006-.087.026-.169.026-.258-.01-.217-.032-.358-.05-.499-.016-.118-.023-.238-.048-.353-.025-.112-.067-.219-.103-.328-.042-.136-.08-.273-.136-.402-.038-.087-.092-.168-.137-.253-.075-.142-.148-.284-.24-.415-.048-.067-.108-.128-.16-.193a4.074 4.074 0 0 0-.352-.399c-.087-.087-.143-.117-.194-.16a4.034 4.034 0 0 0-.42-.315c-.08-.051-.163-.09-.245-.134a3.944 3.944 0 0 0-.44-.209c-.092-.035-.184-.059-.278-.087-.15-.045-.3-.088-.457-.115-.104-.018-.208-.022-.314-.032-.118-.01-.231-.035-.352-.035H118v8.052h13.465l-12.593 13.88a3.908 3.908 0 0 0-1.084 2.994c-.001.046-.013.089-.013.135a3.928 3.928 0 0 0 3.926 3.929H145v-8.053h-12.914l12.029-14.339c.074-.081.127-.173.193-.257.074-.096.15-.187.218-.29zM200.46 34h5.287c1.956 0 3.833 0 4.87-1.713l2.392-3.95 2.391 3.95c1.038 1.713 2.193 1.675 4.871 1.713h18.165V20.09l15.318 12.573c2.156 1.636 6.13 2.108 7.803 0 .477-.602.767-1.28.916-1.979.016-.072.024-.147.037-.22.035-.219.062-.435.067-.654.002-.056.423-.109.423-.167V5h-10.069v14.87L236.722 6.426c-2.165-1.624-5.267-1.225-6.929.891a4.72 4.72 0 0 0-.902 1.967c-.016.07-.023.143-.035.214-.036.221-.064.44-.068.662-.002.053.212.103.212.156v19.38c-1.787.056-4.216.01-4.942-1.256-.047-.159-12.675-21.175-12.675-21.175-1.051-1.532-2.992-2.277-4.937-2.265-1.944-.012-3.885.733-4.937 2.265l-12.162 20.091c-.476.787-.757 2.052-1.347 2.054V11.352c0-2.3-.371-3.184-1.529-4.399a4.802 4.802 0 0 0-3.536-1.485c-.249-.009-.408.024-.57.041-1.508.215-2.609.897-3.352 1.878l-.744.71-9.764 9.305-9.736-9.28-.745-.71a4.802 4.802 0 0 0-3.117-1.855c-.397-.04-.555-.072-.721-.072-1.372-.002-2.661.487-3.62 1.493-1.158 1.216-1.566 2.1-1.566 4.4V34h10.017V21.708l2.206 2.103 7.307 8.027 7.284-8.052 2.207-2.103V34h14.6c2.12-.214 3.834 0 4.871-1.713l8.954-14.792 1.803 2.978L200.46 34z"/></svg>